<svg width="727" height="666" viewBox="0 0 727 666" fill="none" xmlns="http://www.w3.org/2000/svg">
<path fill-rule="evenodd" clip-rule="evenodd" d="M70.542 484.999H97.4894V27.4421C101.049 27.4782 105.315 27.6075 110.201 27.9069C126.366 28.8974 149.237 31.7449 175.717 39.1906C228.578 54.0536 295.889 87.2388 353.279 160.927L363.684 174.287L374.359 161.152L374.361 161.151L374.365 161.146L374.409 161.092C374.452 161.039 374.525 160.951 374.626 160.829C374.828 160.586 375.145 160.207 375.574 159.702C376.431 158.693 377.734 157.182 379.462 155.243C382.919 151.364 388.071 145.78 394.746 139.085C408.113 125.679 427.504 107.905 451.555 90.4592C497.117 57.4098 558.059 26.4986 625.778 26.9537V484.999H652.725V1.32716L640.122 0.511442C558.371 -4.77957 486.407 31.8885 435.732 68.6462C410.26 87.1231 389.783 105.897 375.664 120.058C371.277 124.458 367.495 128.421 364.359 131.802C305.111 61.4836 237.232 28.4946 183.011 13.2491C154.385 5.20004 129.582 2.09657 111.849 1.00994C102.977 0.466317 95.8565 0.426359 90.889 0.527881C88.4047 0.578703 86.4568 0.664926 85.0954 0.741545C84.4146 0.779834 83.8803 0.815764 83.4986 0.843677C83.3077 0.857634 83.155 0.869597 83.0413 0.878793L82.8999 0.890593L82.8513 0.894743L82.8325 0.896412C82.8247 0.897103 82.8175 0.897795 84.0157 14.3181L82.8175 0.897795L70.542 1.99378V484.999Z" fill="#5B1F7C"/>
<path fill-rule="evenodd" clip-rule="evenodd" d="M0 665.066H363.489V629.136H35.9298V147.677H63.4754V111.747H0V665.066Z" fill="#5B1F7C"/>
<path fill-rule="evenodd" clip-rule="evenodd" d="M362.89 665.066H726.381V111.747H662.904V147.677H690.451V629.136H362.89V665.066Z" fill="#5B1F7C"/>
<path d="M363.191 182.919C366.112 198.638 368.054 214.357 369.778 230.077C371.458 245.796 372.719 261.515 373.749 277.234C375.727 308.673 376.645 340.112 376.661 371.55C376.682 402.989 375.759 434.427 373.785 465.866C372.761 481.585 371.498 497.304 369.813 513.024C368.081 528.743 366.132 544.462 363.191 560.182C360.25 544.462 358.301 528.743 356.569 513.024C354.884 497.304 353.621 481.585 352.597 465.866C350.622 434.427 349.699 402.989 349.721 371.55C349.737 340.112 350.657 308.673 352.633 277.234C353.662 261.515 354.923 245.796 356.603 230.077C358.328 214.357 360.27 198.638 363.191 182.919Z" fill="#5B1F7C"/>
<path d="M94.73 458.087C101.196 458.613 107.16 459.289 113.315 460.027C119.414 460.793 125.497 461.585 131.556 462.505C143.681 464.301 155.741 466.387 167.739 468.771C191.73 473.537 215.492 479.446 238.76 486.953C250.407 490.645 261.881 494.917 273.179 499.555C284.488 504.167 295.536 509.452 306.243 515.307C311.635 518.16 316.814 521.415 322.008 524.59L329.576 529.722L331.459 531.007L333.282 532.388L336.919 535.151C346.535 542.592 355.489 550.885 363.19 560.182C354.654 551.638 345.075 544.313 334.986 537.911L331.181 535.543L329.28 534.361L327.316 533.277L319.475 528.959C314.103 526.332 308.793 523.645 303.279 521.356C292.335 516.637 281.147 512.512 269.742 509.059C258.353 505.581 246.855 502.478 235.214 499.953C211.969 494.777 188.386 491.2 164.721 488.755C152.888 487.532 141.027 486.603 129.172 485.963C123.246 485.62 117.319 485.406 111.407 485.219C105.543 485.061 99.4799 484.952 93.9018 485.022L94.73 458.087Z" fill="#5B1F7C"/>
<path d="M632.48 485.022C626.901 484.952 620.838 485.06 614.975 485.218C609.062 485.406 603.134 485.62 597.207 485.961C585.354 486.603 573.492 487.53 561.66 488.755C537.993 491.198 514.411 494.777 491.168 499.953C479.524 502.478 468.029 505.579 456.639 509.059C445.233 512.512 434.046 516.637 423.102 521.356C417.589 523.645 412.278 526.332 406.907 528.959L399.063 533.276L397.102 534.361L395.201 535.543L391.396 537.909C381.307 544.313 371.728 551.638 363.191 560.182C370.892 550.885 379.844 542.592 389.465 535.151L393.099 532.388L394.921 531.007L396.805 529.722L404.372 524.588C409.567 521.415 414.745 518.16 420.136 515.305C430.845 509.452 441.892 504.167 453.201 499.555C464.499 494.917 475.975 490.645 487.619 486.953C510.888 479.446 534.652 473.535 558.642 468.771C570.641 466.387 582.701 464.301 594.823 462.505C600.883 461.585 606.966 460.793 613.067 460.027C619.221 459.289 625.186 458.613 631.65 458.087L632.48 485.022Z" fill="#5B1F7C"/>
</svg>
